<?xml version="1.0" encoding="UTF-8" standalone="no"?>
<svg width="100px" height="100px" viewBox="0 0 100 100" version="1.1" xmlns="http://www.w3.org/2000/svg" xmlns:xlink="http://www.w3.org/1999/xlink" xmlns:sketch="http://www.bohemiancoding.com/sketch/ns">
    <!-- Generator: Sketch 3.4.4 (17249) - http://www.bohemiancoding.com/sketch -->
    <title>Shape</title>
    <desc>Created with Sketch.</desc>
    <defs></defs>
    <g id="Page-1" stroke="none" stroke-width="1" fill="none" fill-rule="evenodd" sketch:type="MSPage">
        <path id="facebook" d="M92.2300505,0 L7.76994949,0 C3.48813131,0 0,3.48787879 0,7.76969697 L0,92.2300505 C0,96.5121212 3.48813131,100 7.76994949,100 L50.7151515,100 L70.5621212,100 L92.230303,100 C96.5118687,100 100,96.5121212 100,92.2300505 L100,7.76969697 C100,3.48787879 96.5118687,0 92.2300505,0 L92.2300505,0 Z M55.8080808,94.9494949 L55.8080808,58.0808081 L43.4343434,58.0808081 L43.4343434,48.989899 L55.8080808,48.989899 L55.8080808,35.8090909 C55.8080808,30.6007576 57.295202,26.3570707 60.1487374,23.5366162 C62.890404,20.8267677 66.9222222,19.3944444 71.7310606,19.3944444 C75.1106061,19.3944444 78.0300505,19.5603535 80.3027778,19.7227273 L80.3027778,27.7247475 L75.1353535,27.7270202 C65.5090909,27.7270202 65.4037879,34.8777778 65.4037879,37.2277778 L65.4037879,48.989899 L79.3532828,48.989899 L78.1570707,58.0808081 L65.4040404,58.0808081 L65.4040404,94.9494949 L55.8080808,94.9494949 L55.8080808,94.9494949 Z M94.9494949,92.2300505 C94.9494949,93.7270202 93.7267677,94.9494949 92.2300505,94.9494949 L70.4545455,94.9494949 L70.4545455,63.1313131 L82.5982323,63.1313131 L85.0972222,43.9393939 L70.4545455,43.9393939 L70.4545455,37.2277778 C70.4545455,35.4848485 70.7391414,34.3989899 71.2343434,33.8106061 C71.8116162,33.125 73.1853535,32.7775253 75.1638889,32.7775253 L85.3535354,32.7729798 L85.3535354,15.2214646 L83.1090909,14.930303 C81.9636364,14.7780303 77.3866162,14.3439394 71.694697,14.3439394 C65.5285354,14.3439394 60.3181818,16.2805556 56.6111111,19.944697 C52.7762626,23.735101 50.7575758,29.2209596 50.7575758,35.8090909 L50.7575758,43.9393939 L38.3838384,43.9393939 L38.3838384,63.1313131 L50.7575758,63.1313131 L50.7575758,94.9494949 L7.76994949,94.9494949 C6.2729798,94.9494949 5.05050505,93.7270202 5.05050505,92.2300505 L5.05050505,7.76969697 C5.05050505,6.27272727 6.2729798,5.05050505 7.76994949,5.05050505 L92.2300505,5.05050505 C93.7267677,5.05050505 94.9494949,6.27272727 94.9494949,7.76969697 L94.9494949,92.2300505 L94.9494949,92.2300505 Z" id="Shape" fill="#000000" sketch:type="MSShapeGroup"></path>
    </g>
</svg>