<?xml version="1.0" encoding="UTF-8" standalone="no"?>
<svg width="57px" height="162px" viewBox="0 0 57 162" version="1.1" xmlns="http://www.w3.org/2000/svg" xmlns:xlink="http://www.w3.org/1999/xlink" xmlns:sketch="http://www.bohemiancoding.com/sketch/ns">
    <!-- Generator: Sketch 3.4.4 (17249) - http://www.bohemiancoding.com/sketch -->
    <title>Group</title>
    <desc>Created with Sketch.</desc>
    <defs></defs>
    <g id="Page-1" stroke="none" stroke-width="1" fill="none" fill-rule="evenodd" sketch:type="MSPage">
        <g id="person" sketch:type="MSLayerGroup" fill="#000000">
            <g id="Group" sketch:type="MSShapeGroup">
                <path d="M28.5,28.0674419 C36.1,28.0674419 42.18,22.0395349 42.18,14.5046512 C42.18,6.96976744 36.1,0.941860465 28.5,0.941860465 C20.9,0.941860465 14.82,6.96976744 14.82,14.5046512 C14.82,22.0395349 20.9,28.0674419 28.5,28.0674419 L28.5,28.0674419 Z" id="Shape"></path>
                <path d="M56.43,88.3465116 C56.43,88.3465116 52.82,45.5860465 51.11,42.1953488 C47.69,35.4139535 42.56,31.2697674 29.64,31.2697674 L28.5,31.2697674 L27.17,31.2697674 C14.44,31.2697674 9.12,35.4139535 5.7,42.1953488 C3.99,45.5860465 0.38,88.3465116 0.38,88.3465116 C0.19,90.7953488 1.9,93.055814 4.56,93.4325581 L5.13,93.4325581 C7.41,93.4325581 9.5,91.7372093 9.69,89.2883721 L13.3,52.1790698 L14.25,81 L11.59,155.406977 C11.4,158.42093 13.68,160.869767 16.53,161.05814 L16.91,161.05814 C19.76,161.05814 22.04,158.986047 22.23,156.160465 L28.5,94.9395349 L34.58,156.160465 C34.77,158.986047 37.24,161.05814 39.9,161.05814 L40.28,161.05814 C43.32,160.869767 45.41,158.232558 45.22,155.406977 L42.75,81 L43.7,52.1790698 L47.31,89.2883721 C47.5,91.5488372 49.59,93.4325581 51.87,93.4325581 L52.44,93.4325581 C54.91,93.055814 56.81,90.7953488 56.43,88.3465116 L56.43,88.3465116 Z" id="Shape"></path>
            </g>
        </g>
    </g>
</svg>